<?xml version="1.0" standalone="no"?>
<!DOCTYPE svg PUBLIC "-//W3C//DTD SVG 20010904//EN"
 "http://www.w3.org/TR/2001/REC-SVG-20010904/DTD/svg10.dtd">
<svg version="1.0" xmlns="http://www.w3.org/2000/svg"
 width="606.000000pt" height="606.000000pt" viewBox="0 0 606.000000 606.000000"
 preserveAspectRatio="xMidYMid meet">
<metadata>
Created by potrace 1.16, written by Peter Selinger 2001-2019
</metadata>
<g transform="translate(0.000000,606.000000) scale(0.100000,-0.100000)"
fill="#000000" stroke="none">
<path d="M2986 5943 c-181 -97 -624 -491 -853 -758 -166 -193 -319 -412 -409
-588 l-29 -57 -5 97 c-6 95 -22 151 -52 169 -7 4 -23 -6 -41 -27 -197 -231
-321 -414 -466 -692 -151 -290 -214 -517 -214 -772 0 -145 14 -244 54 -389
115 -409 275 -603 778 -941 506 -340 616 -457 727 -774 8 -23 48 23 137 158
45 69 106 159 134 200 203 294 284 558 239 781 -22 105 -58 180 -145 295 -128
170 -205 242 -476 447 -153 116 -353 312 -423 415 -23 34 -42 64 -42 66 0 8
-64 111 -86 140 -12 15 -29 27 -37 27 -22 0 -78 -69 -113 -137 -25 -51 -29
-68 -29 -143 1 -74 5 -94 32 -152 66 -140 172 -259 403 -451 306 -255 402
-355 462 -483 28 -60 33 -80 33 -149 0 -94 -21 -147 -88 -221 l-42 -46 -75 58
c-41 32 -122 96 -180 143 -58 47 -175 141 -260 209 -85 69 -184 152 -218 186
-147 141 -251 302 -310 481 -43 132 -57 222 -56 380 1 208 46 395 144 600 58
120 66 128 61 58 -6 -107 33 -177 117 -210 88 -34 356 -17 547 35 27 8 25 9
-28 15 -114 14 -175 57 -197 138 -42 155 182 516 564 907 131 134 308 307 371
363 27 24 61 54 75 67 13 12 28 22 33 22 20 0 355 -330 508 -500 232 -258 384
-470 489 -684 81 -165 111 -272 117 -414 9 -185 -34 -313 -157 -465 -69 -87
-124 -136 -305 -272 -250 -188 -326 -260 -458 -434 -128 -167 -172 -316 -149
-498 14 -109 54 -239 108 -345 67 -134 376 -593 398 -593 5 0 21 34 36 76 93
251 236 393 734 725 448 299 623 510 735 886 86 284 87 569 4 832 -74 236
-235 545 -419 802 -89 125 -225 285 -238 281 -6 -2 -20 -19 -31 -37 -15 -26
-21 -60 -25 -143 l-5 -108 -40 77 c-143 278 -451 655 -790 968 -190 175 -475
397 -508 396 -7 -1 -25 -8 -41 -17z m1590 -1919 c61 -129 106 -262 131 -384
24 -121 24 -357 -1 -470 -48 -220 -144 -403 -298 -565 -68 -72 -476 -411 -707
-588 l-75 -57 -24 22 c-45 42 -82 107 -99 172 -15 56 -16 73 -4 128 14 70 52
145 115 227 47 62 212 214 320 296 125 93 340 308 400 399 108 161 173 325
197 491 13 95 5 314 -14 397 -9 34 -10 55 -4 51 5 -3 34 -57 63 -119z"/>
<path d="M1740 1049 c-118 -19 -246 -112 -300 -218 -55 -110 -71 -285 -36
-406 64 -218 212 -325 451 -325 137 0 264 39 368 112 l27 19 0 190 0 189 -200
0 -200 0 0 -80 0 -80 110 0 110 0 0 -60 c0 -59 0 -59 -42 -84 -51 -29 -139
-56 -183 -56 -53 0 -133 29 -171 62 -36 32 -76 100 -88 152 -13 55 -8 214 9
265 35 107 131 171 253 171 90 -1 146 -33 202 -119 l16 -23 84 14 c80 13 85
15 82 38 -8 71 -94 174 -175 210 -81 36 -204 47 -317 29z"/>
<path d="M2550 575 l0 -465 90 0 90 0 0 465 0 465 -90 0 -90 0 0 -465z"/>
<path d="M3293 1008 c-6 -18 -37 -98 -68 -178 -32 -80 -84 -212 -115 -295 -32
-82 -81 -208 -109 -280 -28 -71 -51 -133 -51 -137 0 -4 42 -8 93 -8 l94 0 26
67 c14 38 31 85 38 105 l13 38 192 0 191 0 39 -105 39 -105 101 0 101 0 -186
465 -186 465 -101 0 -101 0 -10 -32z m170 -338 c30 -80 58 -155 61 -167 l7
-23 -125 0 c-69 0 -126 4 -126 9 0 5 22 69 49 143 69 187 71 191 76 186 2 -2
29 -69 58 -148z"/>
<path d="M3940 965 l0 -75 140 0 140 0 0 -390 0 -390 90 0 90 0 0 390 0 390
140 0 140 0 0 75 0 75 -370 0 -370 0 0 -75z"/>
</g>
</svg>
